<?xml version="1.0" standalone="no"?>
<!DOCTYPE svg PUBLIC "-//W3C//DTD SVG 20010904//EN"
 "http://www.w3.org/TR/2001/REC-SVG-20010904/DTD/svg10.dtd">
<svg version="1.0" xmlns="http://www.w3.org/2000/svg"
 width="187.000000pt" height="241.000000pt" viewBox="0 0 187.000000 241.000000"
 preserveAspectRatio="xMidYMid meet">

<g transform="translate(0.000000,241.000000) scale(0.100000,-0.100000)"
fill="#000000" stroke="none">
<path d="M330 2347 c-8 -7 -42 -46 -75 -87 -33 -41 -74 -90 -92 -108 -39 -38
-41 -52 -12 -78 30 -27 97 -164 115 -236 10 -37 16 -106 16 -177 1 -134 -11
-192 -92 -431 -53 -159 -80 -280 -80 -362 0 -139 69 -302 173 -408 52 -53 216
-180 233 -180 3 0 25 -13 49 -30 24 -16 114 -64 200 -107 l156 -76 117 60
c230 119 266 141 372 232 146 124 238 257 284 409 33 114 30 294 -9 442 -98
378 -116 489 -96 606 17 94 87 198 175 257 15 11 26 25 24 32 -6 25 -237 255
-257 255 -5 0 -29 -21 -53 -46 -117 -124 -293 -137 -462 -34 l-66 40 -93 -44
c-191 -92 -324 -79 -442 43 -41 43 -60 49 -85 28z m578 -963 c21 -14 22 -23
22 -130 l0 -115 -57 3 -58 3 -3 78 -3 77 -74 0 -75 0 0 -77 0 -78 136 -130
c132 -127 135 -131 132 -169 -3 -34 -8 -41 -60 -72 l-58 -33 0 52 0 53 -122
114 c-68 62 -128 123 -135 134 -8 13 -12 67 -13 148 0 165 -8 158 195 158 120
0 155 -3 173 -16z m486 -2 c7 -21 5 -33 -36 -198 l-32 -131 -69 -42 -69 -42 4
28 c3 15 19 82 37 147 17 66 31 128 31 138 0 16 -9 18 -80 18 l-80 0 0 -66 0
-65 -52 3 -53 3 -3 113 -3 112 200 0 c182 0 200 -2 205 -18z m-104 -474 c-1
-2 -20 -77 -43 -168 l-43 -165 -48 -3 c-27 -2 -54 -1 -61 2 -9 3 -4 37 22 133
18 70 37 129 41 131 4 1 32 17 62 36 49 31 71 41 70 34z m-630 -153 c0 -74 2
-85 18 -85 9 0 -14 -19 -52 -41 -54 -33 -70 -39 -77 -28 -5 8 -9 65 -9 127 l0
112 60 0 60 0 0 -85z m260 -155 c-10 -18 -20 -20 -103 -19 -64 0 -87 3 -77 10
8 5 53 32 100 60 l85 49 3 -40 c2 -21 -2 -48 -8 -60z"/>
</g>
</svg>
